<svg 
 xmlns="http://www.w3.org/2000/svg"
 xmlns:xlink="http://www.w3.org/1999/xlink"
 width="1928px" height="147px">
<path fill-rule="evenodd"  fill="rgb(164, 186, 221)"
 d="M0.000,72.999 L0.000,72.000 L1928.000,72.000 L1928.000,72.999 L0.000,72.999 Z"/>
<path fill-rule="evenodd"  fill="rgb(164, 186, 221)"
 d="M699.949,72.000 L727.000,72.000 L727.000,72.999 L699.950,72.999 C699.729,74.529 698.529,75.729 697.000,75.950 L697.000,140.050 C698.694,140.295 700.000,141.738 700.000,143.500 C700.000,145.433 698.433,147.000 696.500,147.000 C694.738,147.000 693.295,145.694 693.050,144.000 L664.000,144.000 L664.000,143.000 L693.050,143.000 C693.271,141.470 694.471,140.271 696.000,140.050 L696.000,75.950 C694.306,75.705 693.000,74.262 693.000,72.500 C693.000,70.738 694.306,69.295 696.000,69.050 L696.000,6.949 C694.470,6.729 693.271,5.529 693.050,3.999 L663.000,3.999 L663.000,2.999 L693.050,2.999 C693.295,1.306 694.738,-0.000 696.500,-0.000 C698.433,-0.000 700.000,1.567 700.000,3.500 C700.000,5.261 698.694,6.705 697.000,6.949 L697.000,69.050 C698.529,69.271 699.729,70.470 699.949,72.000 Z"/>
<path fill-rule="evenodd"  fill="rgb(164, 186, 221)"
 d="M1266.000,3.999 L1235.950,3.999 C1235.729,5.529 1234.529,6.729 1233.000,6.949 L1233.000,69.050 C1234.694,69.295 1236.000,70.738 1236.000,72.500 C1236.000,74.262 1234.694,75.705 1233.000,75.950 L1233.000,140.050 C1234.529,140.271 1235.729,141.470 1235.950,143.000 L1265.000,143.000 L1265.000,144.000 L1235.950,144.000 C1235.705,145.694 1234.262,147.000 1232.500,147.000 C1230.567,147.000 1229.000,145.433 1229.000,143.500 C1229.000,141.738 1230.306,140.295 1232.000,140.050 L1232.000,75.950 C1230.471,75.729 1229.271,74.529 1229.050,72.999 L1202.000,72.999 L1202.000,72.000 L1229.050,72.000 C1229.271,70.470 1230.471,69.271 1232.000,69.050 L1232.000,6.949 C1230.306,6.705 1229.000,5.261 1229.000,3.500 C1229.000,1.567 1230.567,-0.000 1232.500,-0.000 C1234.262,-0.000 1235.705,1.306 1235.950,2.999 L1266.000,2.999 L1266.000,3.999 Z"/>
</svg>