<svg 
 xmlns="http://www.w3.org/2000/svg"
 xmlns:xlink="http://www.w3.org/1999/xlink"
 width="547px" height="63px">
<path fill-rule="evenodd"  fill="rgb(164, 186, 221)"
 d="M544.000,33.960 L544.000,62.999 L543.000,62.999 L543.000,33.960 C541.468,33.740 540.259,32.531 540.039,31.000 L366.961,31.000 C366.741,32.531 365.532,33.740 364.000,33.960 L364.000,62.999 L363.000,62.999 L363.000,33.960 C361.468,33.740 360.259,32.531 360.039,31.000 L276.960,31.000 C276.717,32.695 275.263,34.000 273.500,34.000 C271.737,34.000 270.283,32.695 270.040,31.000 L187.961,31.000 C187.741,32.531 186.532,33.740 185.000,33.960 L185.000,62.999 L184.000,62.999 L184.000,33.960 C182.468,33.740 181.259,32.531 181.039,31.000 L6.961,31.000 C6.741,32.531 5.532,33.740 4.000,33.960 L4.000,62.999 L3.000,62.999 L3.000,33.960 C1.305,33.717 -0.000,32.262 -0.000,30.500 C-0.000,28.567 1.567,27.000 3.500,27.000 C5.263,27.000 6.717,28.304 6.960,30.000 L181.040,30.000 C181.283,28.304 182.737,27.000 184.500,27.000 C186.263,27.000 187.717,28.304 187.960,30.000 L270.039,30.000 C270.259,28.469 271.468,27.259 273.000,27.039 L273.000,-0.001 L274.000,-0.001 L274.000,27.039 C275.532,27.259 276.741,28.469 276.961,30.000 L360.040,30.000 C360.283,28.304 361.737,27.000 363.500,27.000 C365.263,27.000 366.717,28.304 366.960,30.000 L540.040,30.000 C540.283,28.304 541.737,27.000 543.500,27.000 C545.433,27.000 547.000,28.567 547.000,30.500 C547.000,32.262 545.695,33.717 544.000,33.960 Z"/>
</svg>