<svg 
 xmlns="http://www.w3.org/2000/svg"
 xmlns:xlink="http://www.w3.org/1999/xlink"
 width="37px" height="42px">
<defs>
<linearGradient id="PSgrad_0" x1="0%" x2="0%" y1="100%" y2="0%">
  <stop offset="0%" stop-color="rgb(133,236,208)" stop-opacity="1" />
  <stop offset="100%" stop-color="rgb(0,192,255)" stop-opacity="1" />
</linearGradient>

</defs>
<path fill-rule="evenodd"  fill="url(#PSgrad_0)"
 d="M4.614,17.225 C4.614,15.161 4.614,13.097 4.614,11.033 C4.614,10.271 4.466,9.143 4.904,8.810 C5.092,8.666 5.460,8.555 5.754,8.681 C6.459,9.263 7.165,9.845 7.870,10.427 C8.513,10.373 9.341,9.843 9.897,10.279 C10.294,10.592 10.186,11.463 10.186,12.172 C10.186,13.856 10.186,15.541 10.186,17.225 C12.604,17.225 15.023,17.225 17.441,17.225 C17.441,15.302 17.441,13.378 17.441,11.455 C17.441,10.481 17.561,9.262 17.332,8.460 C17.037,7.426 16.423,6.659 15.595,6.164 C14.484,5.500 12.866,5.620 11.851,6.274 C11.472,6.518 11.228,6.950 10.855,7.174 C10.066,7.493 9.275,7.812 8.486,8.130 C8.122,8.204 7.854,8.015 7.708,7.854 C7.219,7.144 6.731,6.434 6.242,5.723 C6.075,5.483 5.755,5.198 5.880,4.731 C6.059,4.063 6.897,3.221 7.346,2.765 C9.377,0.702 13.235,-0.907 17.024,0.579 C20.679,2.011 23.085,5.060 23.103,10.225 C23.724,10.377 24.345,10.531 24.966,10.684 C24.972,10.678 24.978,10.672 24.984,10.666 C25.605,8.087 26.227,5.508 26.848,2.930 C27.017,2.258 27.222,0.563 27.662,0.230 C28.121,-0.118 28.902,0.192 29.435,0.340 C30.707,0.665 31.980,0.989 33.252,1.314 C33.770,1.459 34.540,1.490 34.934,1.791 C35.532,2.248 34.941,3.905 34.753,4.603 C34.108,7.290 33.463,9.979 32.818,12.668 C33.374,12.716 35.713,13.324 35.929,13.623 C36.286,14.117 35.582,16.320 35.405,16.968 C35.303,17.342 35.287,17.736 35.025,17.941 C34.667,18.221 34.127,18.084 33.686,17.959 C32.510,17.659 31.334,17.359 30.158,17.059 C30.158,17.072 30.158,17.084 30.158,17.096 C29.537,19.643 28.916,22.192 28.295,24.739 C28.100,25.513 27.652,26.835 28.114,27.441 C28.652,28.144 30.365,28.418 31.262,28.818 C33.024,29.605 34.524,31.123 35.133,33.081 C35.303,33.625 35.319,34.151 35.423,34.808 C35.517,35.408 35.438,36.160 35.314,36.664 C34.508,39.947 32.101,41.295 28.675,41.937 C28.052,42.053 27.260,41.973 26.576,41.973 C25.274,41.980 23.971,41.986 22.669,41.992 C19.166,41.992 15.661,41.992 12.158,41.992 C10.078,41.992 7.997,41.992 5.917,41.992 C4.447,41.992 3.112,42.020 2.208,41.478 C1.292,40.928 0.614,40.112 0.272,38.978 C0.072,38.314 0.128,37.386 0.128,36.535 C0.128,35.169 0.128,33.804 0.128,32.438 C0.128,29.970 0.128,27.501 0.128,25.033 C0.128,24.096 0.128,23.159 0.128,22.222 C0.128,21.607 0.093,20.966 0.218,20.458 C0.711,18.454 2.118,17.213 4.614,17.225 ZM19.069,17.225 C19.871,17.225 20.673,17.225 21.475,17.225 C21.475,16.441 21.475,15.657 21.475,14.873 C20.456,14.789 20.458,14.066 20.697,13.183 C21.082,11.760 21.739,9.995 21.384,8.185 C20.832,5.369 19.256,3.353 16.952,2.324 C14.094,1.047 11.199,1.776 9.191,3.298 C8.721,3.654 8.318,4.057 7.961,4.529 C7.883,4.632 7.631,4.841 7.690,4.952 C8.003,5.404 8.317,5.858 8.630,6.311 C9.083,6.128 9.535,5.943 9.987,5.760 C10.120,5.619 10.252,5.478 10.385,5.337 C10.815,4.989 11.292,4.670 11.832,4.437 C12.337,4.220 12.885,4.161 13.515,4.051 C14.708,3.843 16.003,4.499 16.645,4.915 C17.773,5.646 18.568,6.725 18.942,8.222 C19.164,9.110 19.069,10.347 19.069,11.419 C19.069,13.354 19.069,15.290 19.069,17.225 ZM28.747,1.883 C28.012,4.951 27.276,8.020 26.540,11.088 C27.077,11.222 27.614,11.357 28.150,11.492 C28.150,11.480 28.150,11.468 28.150,11.455 C28.391,10.518 28.633,9.581 28.874,8.645 C29.005,8.163 29.166,7.529 29.887,7.689 C30.244,7.768 30.649,8.140 30.538,8.681 C30.267,9.740 29.996,10.801 29.724,11.859 C29.873,11.979 31.054,12.255 31.244,12.246 C31.980,9.177 32.715,6.108 33.451,3.040 C31.883,2.655 30.315,2.269 28.747,1.883 ZM30.394,4.511 C31.554,4.470 31.630,5.930 30.701,6.146 C30.128,6.279 29.569,5.735 29.742,5.117 C29.843,4.756 30.083,4.664 30.394,4.511 ZM6.242,17.225 C7.014,17.225 7.786,17.225 8.558,17.225 C8.558,15.473 8.558,13.721 8.558,11.970 C8.254,12.022 7.922,12.223 7.563,12.154 C7.019,12.049 6.644,11.488 6.242,11.198 C6.242,13.207 6.242,15.216 6.242,17.225 ZM22.705,11.823 C22.578,12.350 22.452,12.876 22.325,13.403 C26.178,14.371 30.032,15.339 33.885,16.306 C33.985,16.177 34.296,14.873 34.265,14.708 C30.412,13.746 26.558,12.784 22.705,11.823 ZM23.103,17.225 C23.532,17.220 23.926,17.245 24.279,17.298 C24.406,16.760 24.532,16.220 24.659,15.681 C24.140,15.553 23.622,15.424 23.103,15.295 C23.103,15.938 23.103,16.582 23.103,17.225 ZM26.233,16.086 C25.979,17.108 25.726,18.131 25.473,19.154 C25.087,20.813 24.701,22.473 24.315,24.133 C24.027,25.291 23.583,26.843 23.990,28.193 C24.523,29.964 25.941,31.172 27.535,31.868 C27.932,32.041 28.375,32.112 28.820,32.254 C29.467,32.460 30.029,32.771 30.502,33.154 C31.183,33.707 31.792,35.280 31.153,36.370 C30.595,37.322 29.418,37.655 28.132,37.876 C27.532,37.979 26.913,37.878 26.359,37.987 C24.598,38.332 23.239,38.874 21.999,39.713 C21.721,39.902 21.379,40.081 21.167,40.338 C22.783,40.338 24.400,40.338 26.016,40.338 C26.869,40.339 27.854,40.428 28.621,40.283 C30.484,39.930 31.956,39.345 32.908,38.079 C33.618,37.134 34.121,35.420 33.650,33.816 C33.140,32.079 31.917,30.901 30.376,30.214 C29.889,29.998 29.391,29.930 28.838,29.737 C27.820,29.382 26.748,28.663 26.359,27.661 C26.001,26.736 26.511,25.283 26.721,24.446 C27.196,22.556 27.557,20.669 28.060,18.824 C28.235,18.107 28.410,17.390 28.585,16.673 C27.801,16.477 27.017,16.281 26.233,16.086 ZM25.943,36.406 C25.943,35.230 25.943,34.055 25.943,32.878 C24.310,32.005 22.974,30.527 22.397,28.579 C21.936,27.017 22.383,25.169 22.723,23.821 C23.109,22.180 23.495,20.538 23.881,18.897 C18.611,18.891 13.339,18.884 8.070,18.878 C7.081,18.878 6.091,18.878 5.103,18.878 C4.606,18.878 4.016,18.826 3.601,18.933 C3.088,19.066 2.604,19.373 2.317,19.741 C1.529,20.752 1.756,22.768 1.756,24.555 C1.756,28.132 1.756,31.709 1.756,35.285 C1.756,37.506 1.523,39.123 2.914,39.989 C3.844,40.568 6.139,40.338 7.617,40.338 C11.332,40.338 15.047,40.338 18.761,40.338 C18.996,40.118 19.232,39.897 19.467,39.677 C19.792,39.383 20.118,39.089 20.444,38.795 C21.419,38.047 22.474,37.485 23.718,36.994 C24.356,36.743 25.147,36.443 25.943,36.406 ZM5.663,20.513 C7.249,20.513 8.835,20.513 10.421,20.513 C11.177,20.513 11.951,20.412 12.248,20.881 C12.518,21.305 12.375,23.894 12.375,24.684 C12.375,27.997 12.375,31.312 12.375,34.624 C12.375,35.433 12.375,36.241 12.375,37.049 C12.363,37.405 12.351,37.760 12.339,38.115 C12.273,38.330 12.083,38.546 11.887,38.629 C11.460,38.810 9.887,38.684 9.282,38.684 C8.300,38.684 5.547,38.878 5.175,38.372 C4.858,37.941 5.012,36.210 5.012,35.451 C5.012,32.879 5.012,30.306 5.012,27.734 C5.012,26.105 5.012,24.476 5.012,22.847 C5.012,21.569 4.776,20.991 5.663,20.513 ZM6.640,22.149 C6.640,27.115 6.640,32.083 6.640,37.049 C8.009,37.049 9.378,37.049 10.747,37.049 C10.747,32.083 10.747,27.115 10.747,22.149 C9.378,22.149 8.009,22.149 6.640,22.149 ZM8.504,23.802 C9.680,23.760 9.745,25.237 8.811,25.438 C8.205,25.568 7.704,24.999 7.852,24.427 C7.948,24.057 8.190,23.957 8.504,23.802 ZM8.540,27.073 C9.679,27.037 9.709,28.550 8.739,28.726 C8.153,28.833 7.694,28.203 7.870,27.643 C7.978,27.299 8.226,27.214 8.540,27.073 ZM8.486,30.361 C9.696,30.318 9.749,31.795 8.793,31.997 C8.204,32.121 7.705,31.547 7.852,30.986 C7.947,30.625 8.181,30.514 8.486,30.361 ZM8.522,33.632 C9.660,33.592 9.747,35.048 8.829,35.267 C8.215,35.414 7.678,34.814 7.870,34.201 C7.978,33.859 8.217,33.779 8.522,33.632 ZM27.571,33.632 C27.571,34.502 27.571,35.371 27.571,36.241 C27.577,36.241 27.584,36.241 27.589,36.241 C28.378,36.041 29.328,36.178 29.706,35.580 C30.430,34.436 28.285,33.809 27.571,33.632 Z"/>
</svg>