<svg 
 xmlns="http://www.w3.org/2000/svg"
 xmlns:xlink="http://www.w3.org/1999/xlink"
 width="187px" height="60px">
<path fill-rule="evenodd"  fill="rgb(164, 186, 221)"
 d="M184.000,30.950 L184.000,59.989 L183.000,59.989 L183.000,30.950 C181.467,30.728 180.265,29.523 180.049,27.988 C168.601,27.988 133.756,27.988 97.951,27.988 C97.711,29.688 96.266,31.000 94.500,31.000 C92.734,31.000 91.289,29.688 91.049,27.988 C54.553,27.988 18.614,27.988 6.951,27.988 C6.735,29.523 5.533,30.728 4.000,30.950 L4.000,59.989 L3.000,59.989 L3.000,30.950 C1.306,30.705 -0.000,29.262 -0.000,27.500 C-0.000,25.567 1.567,24.000 3.500,24.000 C5.258,24.000 6.699,25.300 6.948,26.988 L91.052,26.988 C91.277,25.461 92.479,24.266 94.008,24.049 C94.006,16.330 94.000,-0.051 94.000,-0.014 L95.000,-0.014 C95.000,-0.060 94.997,16.343 94.995,24.050 C96.523,24.268 97.723,25.463 97.948,26.988 L180.052,26.988 C180.301,25.300 181.742,24.000 183.500,24.000 C185.433,24.000 187.000,25.567 187.000,27.500 C187.000,29.262 185.694,30.705 184.000,30.950 Z"/>
</svg>