<svg 
 xmlns="http://www.w3.org/2000/svg"
 xmlns:xlink="http://www.w3.org/1999/xlink"
 width="46px" height="45px">
<defs>
<linearGradient id="PSgrad_0" x1="0%" x2="0%" y1="100%" y2="0%">
  <stop offset="0%" stop-color="rgb(133,236,208)" stop-opacity="1" />
  <stop offset="100%" stop-color="rgb(0,192,255)" stop-opacity="1" />
</linearGradient>

</defs>
<path fill-rule="evenodd"  fill="url(#PSgrad_0)"
 d="M22.326,-0.000 C23.745,-0.012 24.121,0.664 24.851,1.300 C25.202,1.605 25.536,1.939 25.842,2.290 C26.334,2.769 26.826,3.248 27.318,3.727 C29.189,5.609 31.061,7.493 32.932,9.376 C33.560,9.991 34.189,10.606 34.817,11.220 C37.089,13.504 39.363,15.789 41.635,18.073 C42.279,18.807 43.071,19.411 43.714,20.151 C44.184,20.692 44.763,21.026 44.957,21.859 C45.106,22.498 44.977,23.278 44.724,23.703 C44.357,24.320 43.719,24.870 43.189,25.334 C42.304,26.111 41.569,27.060 40.683,27.839 C39.809,28.725 38.935,29.612 38.061,30.498 C34.752,33.792 31.443,37.086 28.134,40.379 C27.037,41.344 26.140,42.538 25.026,43.486 C24.320,44.087 23.966,44.772 22.811,44.962 C22.205,45.061 21.578,44.863 21.238,44.651 C20.660,44.291 20.210,43.712 19.742,43.234 C19.026,42.504 18.238,41.831 17.566,41.059 C16.394,39.902 15.222,38.743 14.050,37.585 C10.787,34.310 7.523,31.035 4.259,27.761 C3.722,27.237 3.184,26.713 2.647,26.189 C2.278,25.807 1.909,25.425 1.540,25.043 C1.109,24.676 0.618,24.232 0.316,23.742 C0.092,23.380 -0.100,22.685 0.025,22.073 C0.251,20.960 1.021,20.388 1.715,19.743 C2.939,18.605 4.005,17.288 5.270,16.191 C6.875,14.573 8.481,12.955 10.087,11.337 C12.178,9.260 14.270,7.182 16.362,5.105 C17.326,4.053 18.354,2.974 19.431,2.038 C20.052,1.498 20.517,0.744 21.238,0.310 C21.555,0.119 21.938,0.157 22.326,-0.000 ZM22.423,1.824 C21.696,2.206 21.193,2.897 20.636,3.455 C19.580,4.509 18.524,5.564 17.469,6.620 C13.953,10.133 10.436,13.648 6.921,17.161 C5.697,18.384 4.473,19.607 3.249,20.830 C2.911,21.168 1.958,21.900 1.851,22.364 C1.746,22.815 2.498,23.394 2.725,23.587 C2.997,23.872 3.269,24.157 3.541,24.441 C4.259,25.147 4.978,25.852 5.697,26.557 C8.229,29.101 10.761,31.644 13.293,34.187 C14.859,35.740 16.427,37.293 17.994,38.846 C19.016,40.044 20.244,41.090 21.354,42.205 C21.582,42.434 22.149,43.256 22.656,43.117 C23.077,43.002 23.650,42.221 23.957,41.914 C24.670,41.215 25.382,40.516 26.094,39.817 C26.424,39.474 26.755,39.131 27.085,38.788 C30.115,35.773 33.146,32.756 36.176,29.742 C36.986,28.920 37.795,28.098 38.605,27.276 C39.871,26.197 40.879,24.820 42.140,23.742 C42.383,23.535 43.278,22.826 43.170,22.364 C43.074,21.953 42.582,21.641 42.315,21.374 C41.577,20.636 40.839,19.898 40.100,19.161 C37.342,16.404 34.583,13.647 31.825,10.891 C29.552,8.619 27.279,6.348 25.006,4.077 C24.456,3.526 23.906,2.976 23.355,2.426 C23.099,2.171 22.925,1.834 22.423,1.824 ZM22.170,4.426 C24.081,4.409 24.611,5.550 25.570,6.464 C26.884,7.764 28.199,9.066 29.513,10.367 C30.025,10.891 30.536,11.415 31.048,11.939 C32.835,13.712 34.622,15.485 36.409,17.258 C36.824,17.685 37.238,18.112 37.653,18.539 C38.193,19.017 38.678,19.546 39.187,20.054 C39.562,20.428 39.991,20.776 40.275,21.238 C40.443,21.511 40.518,21.909 40.586,22.267 C40.727,23.008 40.308,23.673 40.023,24.034 C39.152,25.136 37.958,25.959 37.051,27.024 C36.375,27.816 35.510,28.446 34.836,29.237 C34.100,30.101 33.223,30.954 32.369,31.702 C32.006,32.077 31.644,32.453 31.281,32.828 C29.921,34.174 28.561,35.520 27.202,36.866 C26.832,37.248 26.463,37.630 26.094,38.012 C25.758,38.335 25.421,38.659 25.084,38.982 C24.485,39.684 23.894,40.307 22.811,40.535 C22.138,40.677 21.511,40.352 21.160,40.128 C20.000,39.389 19.153,38.045 18.110,37.158 C15.242,34.304 12.373,31.450 9.504,28.596 C8.779,27.858 8.054,27.120 7.329,26.383 C6.883,26.002 6.450,25.562 6.066,25.121 C5.320,24.261 4.037,23.563 4.531,21.762 C4.751,20.962 5.448,20.375 6.008,19.898 C6.286,19.607 6.565,19.316 6.843,19.025 C7.601,18.281 8.358,17.536 9.116,16.792 C10.521,15.440 11.928,14.049 13.273,12.638 C13.831,12.053 14.386,11.434 15.002,10.910 C15.848,10.189 16.522,9.264 17.372,8.542 C17.786,8.115 18.201,7.687 18.615,7.260 C19.101,6.788 19.587,6.315 20.072,5.843 C20.356,5.520 20.687,5.116 21.043,4.872 C21.238,4.768 21.432,4.665 21.626,4.562 C21.808,4.516 21.989,4.471 22.170,4.426 ZM22.423,6.270 C21.798,6.613 21.390,7.146 20.908,7.629 C20.085,8.451 19.263,9.273 18.440,10.095 C15.727,12.806 13.014,15.518 10.301,18.229 C9.336,19.193 8.371,20.157 7.406,21.122 C7.070,21.458 6.418,21.868 6.299,22.384 C6.189,22.858 6.726,23.122 6.921,23.335 C7.673,24.155 8.562,24.866 9.291,25.703 C11.809,28.233 14.329,30.764 16.848,33.294 C17.527,33.960 18.207,34.627 18.887,35.294 C19.705,36.233 20.692,37.016 21.529,37.934 C21.740,38.165 22.114,38.806 22.637,38.672 C23.093,38.554 23.365,38.018 23.685,37.740 C24.557,36.984 25.356,36.108 26.152,35.274 C27.804,33.637 29.455,31.999 31.106,30.363 C32.466,28.991 33.826,27.618 35.186,26.247 C36.122,25.373 37.114,24.465 37.944,23.490 C38.156,23.241 38.843,22.904 38.721,22.384 C38.629,21.988 38.226,21.730 37.964,21.490 C37.350,20.929 36.813,20.284 36.196,19.723 C35.173,18.688 34.150,17.653 33.127,16.618 C32.026,15.530 30.925,14.443 29.824,13.356 C28.945,12.397 28.009,11.455 27.046,10.580 C26.120,9.739 25.312,8.765 24.385,7.920 C23.939,7.515 23.123,6.284 22.423,6.270 ZM21.995,10.774 C24.672,10.740 25.924,12.495 25.473,15.317 C25.447,15.809 25.421,16.301 25.395,16.792 C25.317,18.177 25.239,19.562 25.162,20.947 C25.149,21.335 25.136,21.723 25.123,22.111 C25.065,23.076 25.006,24.040 24.948,25.005 C24.708,26.047 23.935,26.785 22.850,26.984 C22.235,27.099 21.615,26.917 21.257,26.752 C20.634,26.463 20.201,26.013 19.936,25.373 C19.694,24.789 19.856,24.005 19.742,23.276 C19.658,21.918 19.574,20.558 19.489,19.200 C19.464,18.539 19.438,17.879 19.412,17.219 C19.379,16.650 19.347,16.080 19.315,15.511 C19.196,14.744 19.107,13.604 19.353,12.949 C19.661,12.129 20.234,11.419 21.005,11.065 C21.282,10.938 21.723,10.943 21.995,10.774 ZM22.345,12.618 C21.781,12.869 21.436,12.823 21.179,13.395 C20.904,14.007 21.172,15.102 21.179,15.841 C21.290,17.788 21.400,19.736 21.510,21.684 C21.670,22.687 21.188,25.481 22.578,25.140 C23.463,24.924 23.102,22.728 23.258,21.723 C23.362,19.808 23.465,17.892 23.569,15.977 C23.673,15.298 23.796,13.947 23.588,13.414 C23.405,12.944 22.951,12.675 22.345,12.618 ZM22.190,28.285 C24.119,28.256 25.606,29.775 24.832,31.760 C24.508,32.590 23.753,33.110 22.753,33.274 C21.118,33.545 19.511,31.722 20.092,30.052 C20.346,29.322 20.869,28.723 21.568,28.440 C21.775,28.389 21.982,28.337 22.190,28.285 ZM22.423,30.129 C22.211,30.229 22.020,30.296 21.918,30.498 C21.691,30.948 22.104,31.527 22.637,31.411 C23.371,31.251 23.279,30.112 22.423,30.129 Z"/>
</svg>