<svg 
 xmlns="http://www.w3.org/2000/svg"
 xmlns:xlink="http://www.w3.org/1999/xlink"
 width="46px" height="45px">
<defs>
<linearGradient id="PSgrad_0" x1="0%" x2="0%" y1="100%" y2="0%">
  <stop offset="0%" stop-color="rgb(133,236,208)" stop-opacity="1" />
  <stop offset="100%" stop-color="rgb(0,192,255)" stop-opacity="1" />
</linearGradient>

</defs>
<path fill-rule="evenodd"  fill="url(#PSgrad_0)"
 d="M32.307,28.726 C31.868,28.720 30.990,28.603 30.696,28.801 C30.617,29.008 30.414,29.118 30.239,29.232 C29.160,29.933 27.534,29.055 27.769,27.623 C28.022,26.071 29.929,25.635 30.770,26.931 C31.282,26.931 31.794,26.931 32.307,26.931 C32.307,25.498 32.307,24.064 32.307,22.630 C31.918,22.626 30.998,22.536 30.715,22.668 C30.240,23.992 27.472,23.406 27.769,21.546 C27.907,20.679 28.755,19.719 29.891,20.124 C30.293,20.267 30.496,20.549 30.770,20.816 C31.282,20.816 31.794,20.816 32.307,20.816 C32.307,18.865 32.307,16.914 32.307,14.963 C31.129,14.983 29.684,14.696 28.738,14.383 C27.029,13.818 25.699,13.427 24.420,12.439 C22.477,10.935 21.226,8.547 20.230,6.080 C19.917,5.308 19.549,4.491 19.333,3.630 C19.053,3.805 18.800,4.150 18.583,4.397 C18.066,4.986 17.455,5.490 16.936,6.080 C16.033,6.990 15.130,7.901 14.228,8.811 C13.240,9.833 12.251,10.855 11.263,11.877 C10.568,12.588 9.873,13.299 9.177,14.009 C8.948,14.264 8.436,14.595 8.336,14.889 C16.246,22.966 24.158,31.046 32.069,39.124 C36.100,39.124 40.133,39.124 44.164,39.124 C43.862,37.045 42.558,35.802 40.889,35.103 C40.477,34.931 39.977,34.922 39.498,34.823 C38.229,34.823 36.960,34.823 35.692,34.823 C35.274,34.823 34.641,34.909 34.319,34.767 C33.933,34.595 33.580,33.906 33.935,33.402 C34.228,32.986 34.801,33.028 35.509,33.028 C36.655,33.028 37.802,33.028 38.949,33.028 C42.650,33.028 44.767,35.092 45.719,37.909 C45.957,38.610 45.994,39.428 45.994,40.358 C45.994,42.410 45.841,43.367 44.329,43.893 C43.985,44.013 43.487,43.967 43.048,43.967 C42.200,43.967 41.352,43.967 40.504,43.967 C38.193,43.967 35.881,43.967 33.569,43.967 C32.436,43.967 30.988,44.115 30.129,43.780 C29.077,43.371 28.568,42.574 27.805,41.892 C26.635,40.846 25.596,39.626 24.493,38.507 C20.447,34.401 16.426,30.269 12.398,26.146 C10.953,24.681 9.507,23.216 8.061,21.751 C7.366,21.028 6.670,20.305 5.975,19.582 C5.251,18.914 4.277,17.735 4.841,16.197 C5.110,15.463 5.668,15.057 6.158,14.552 C6.869,13.818 7.581,13.090 8.299,12.364 C9.970,10.637 11.642,8.910 13.313,7.184 C14.283,6.205 15.253,5.226 16.222,4.248 C17.094,3.356 17.967,2.465 18.839,1.573 C19.120,1.299 19.490,0.800 20.120,1.068 C20.728,1.328 21.192,3.829 21.529,4.584 C22.588,6.962 23.530,9.560 25.500,10.999 C26.515,11.740 27.746,12.251 29.104,12.644 C29.714,12.769 30.324,12.894 30.934,13.018 C31.885,13.264 33.519,12.896 33.972,13.654 C34.136,13.930 34.082,14.478 34.082,14.907 C34.082,15.848 34.082,16.790 34.082,17.730 C34.082,21.277 34.082,24.825 34.082,28.371 C34.082,28.577 34.082,28.783 34.082,28.988 C34.417,29.338 34.753,29.686 35.088,30.035 C35.323,30.257 35.711,30.588 35.545,31.139 C35.380,31.689 34.602,31.989 34.082,31.569 C33.911,31.382 33.740,31.195 33.569,31.008 C33.261,30.716 32.512,30.119 32.362,29.736 C32.262,29.485 32.303,29.059 32.307,28.726 ZM18.034,7.034 C19.109,7.033 19.110,7.799 19.498,8.474 C19.934,9.234 20.417,9.955 20.925,10.643 C22.652,12.981 24.983,14.329 27.842,15.524 C28.655,15.864 29.568,15.854 30.477,16.122 C31.009,16.280 31.274,17.077 30.879,17.581 C30.627,17.902 29.986,17.951 29.470,17.805 C28.416,17.507 27.375,17.318 26.433,16.927 C23.161,15.566 20.611,13.479 18.766,10.662 C18.413,10.123 17.096,8.364 17.430,7.539 C17.547,7.249 17.795,7.201 18.034,7.034 ZM44.237,40.919 C39.986,40.919 35.734,40.919 31.483,40.919 C30.959,40.780 30.019,39.568 29.617,39.161 C28.519,38.052 27.421,36.942 26.323,35.833 C25.829,35.315 25.335,34.798 24.841,34.281 C18.913,28.235 12.983,22.187 7.055,16.141 C7.055,16.154 7.055,16.166 7.055,16.178 C6.643,16.481 6.235,17.126 6.652,17.730 C8.299,19.420 9.946,21.109 11.593,22.798 C15.972,27.261 20.352,31.726 24.731,36.188 C26.120,37.465 27.299,38.982 28.702,40.246 C29.317,40.801 29.793,41.629 30.568,42.004 C31.254,42.336 32.884,42.172 33.862,42.172 C36.338,42.172 38.815,42.172 41.291,42.172 C41.915,42.172 43.758,42.311 44.054,42.023 C44.272,41.810 44.241,41.360 44.237,40.919 ZM25.591,19.301 C26.793,19.287 26.616,20.371 26.616,21.564 C26.616,23.590 26.616,25.616 26.616,27.642 C26.616,28.735 26.830,30.060 25.920,30.241 C24.616,30.501 24.841,28.928 24.841,27.829 C24.841,25.853 24.841,23.876 24.841,21.900 C24.841,20.494 24.556,19.765 25.591,19.301 ZM3.175,26.931 C4.920,26.931 6.665,26.931 8.409,26.931 C9.346,26.931 10.402,26.887 10.184,28.016 C10.037,28.777 9.326,28.727 8.427,28.726 C7.171,28.726 5.914,28.726 4.658,28.726 C4.092,28.727 3.206,28.839 2.846,28.596 C2.386,28.284 2.349,27.423 2.810,27.081 C2.932,27.031 3.054,26.981 3.175,26.931 ZM1.785,31.494 C5.097,31.494 8.409,31.494 11.721,31.494 C12.848,31.494 14.905,31.145 14.667,32.522 C14.479,33.609 12.914,33.308 11.702,33.308 C9.330,33.308 6.957,33.308 4.584,33.308 C3.859,33.308 3.133,33.308 2.407,33.308 C2.120,33.296 1.834,33.283 1.547,33.271 C1.033,33.071 0.731,32.156 1.254,31.719 C1.412,31.586 1.567,31.582 1.785,31.494 ZM4.658,36.076 C8.402,36.076 12.148,36.076 15.893,36.076 C17.028,36.076 19.513,35.711 19.150,37.160 C19.079,37.442 18.851,37.736 18.601,37.834 C18.385,37.918 18.015,37.871 17.741,37.871 C17.009,37.871 16.277,37.871 15.545,37.871 C11.886,37.865 8.226,37.859 4.566,37.853 C4.133,37.721 3.730,37.037 4.072,36.487 C4.206,36.271 4.423,36.195 4.658,36.076 Z"/>
</svg>