<svg 
 xmlns="http://www.w3.org/2000/svg"
 xmlns:xlink="http://www.w3.org/1999/xlink"
 width="46px" height="42px">
<defs>
<linearGradient id="PSgrad_0" x1="0%" x2="0%" y1="100%" y2="0%">
  <stop offset="0%" stop-color="rgb(133,236,208)" stop-opacity="1" />
  <stop offset="100%" stop-color="rgb(0,192,255)" stop-opacity="1" />
</linearGradient>

</defs>
<path fill-rule="evenodd"  fill="url(#PSgrad_0)"
 d="M35.396,-0.003 C35.996,-0.022 36.347,0.292 36.420,0.787 C36.461,1.067 36.300,1.380 36.234,1.596 C36.054,2.258 35.874,2.920 35.694,3.582 C35.578,3.961 35.557,4.451 35.340,4.740 C35.184,4.948 34.809,5.174 34.409,5.071 C34.030,4.973 33.609,4.549 33.758,4.005 C33.981,3.208 34.205,2.411 34.428,1.615 C34.551,1.209 34.575,0.682 34.800,0.364 C34.949,0.155 35.145,0.112 35.396,-0.003 ZM24.170,1.927 C25.845,1.922 26.341,2.877 26.963,3.913 C27.918,5.531 28.874,7.149 29.830,8.767 C30.636,8.724 31.443,8.682 32.250,8.638 C32.660,8.651 33.206,8.475 33.572,8.620 C34.118,8.836 34.380,9.684 34.670,10.165 C34.980,10.678 35.778,11.753 35.880,12.334 C35.960,12.788 35.616,13.083 35.452,13.327 C34.925,14.117 34.397,14.908 33.869,15.699 C34.695,17.121 35.520,18.543 36.346,19.964 C36.682,20.525 37.303,21.254 37.146,22.189 C36.708,24.804 34.483,24.561 32.026,25.094 C27.304,26.014 22.581,26.933 17.859,27.852 C17.859,27.858 17.859,27.864 17.859,27.871 C18.088,28.250 19.197,29.886 19.106,30.353 C19.066,30.557 18.966,30.776 18.827,30.886 C18.014,31.352 17.201,31.818 16.388,32.283 C17.071,33.460 17.754,34.637 18.436,35.814 C18.770,36.360 19.162,36.899 19.367,37.561 C20.020,39.669 18.493,41.410 16.910,41.882 C15.823,42.205 14.602,41.824 13.950,41.366 C12.985,40.692 12.514,39.483 11.902,38.461 C10.779,36.543 9.655,34.625 8.532,32.707 C7.632,32.890 6.562,33.306 5.349,33.074 C2.898,32.605 1.334,31.284 0.508,29.213 C0.158,28.335 -0.061,26.914 0.229,25.775 C0.392,25.132 0.609,24.519 0.918,24.009 C1.867,22.441 3.346,21.743 4.939,20.810 C6.136,20.118 7.334,19.425 8.532,18.732 C9.233,18.340 9.935,17.948 10.636,17.556 C13.533,13.909 16.432,10.262 19.330,6.616 C20.099,5.647 20.869,4.679 21.638,3.711 C21.999,3.246 22.314,2.696 22.811,2.369 C23.045,2.214 23.350,2.077 23.649,2.001 C23.823,1.976 23.996,1.952 24.170,1.927 ZM24.170,3.674 C23.725,3.878 23.488,4.081 23.258,4.483 C26.851,10.636 30.444,16.790 34.037,22.943 C34.424,22.877 34.919,22.852 35.135,22.612 C35.323,22.405 35.471,21.962 35.303,21.619 C34.813,20.780 34.322,19.940 33.832,19.100 C31.617,15.325 29.401,11.549 27.186,7.774 C26.609,6.787 26.032,5.800 25.455,4.814 C25.141,4.292 25.029,3.667 24.170,3.674 ZM44.053,3.674 C44.877,3.677 45.314,4.527 44.798,5.145 C44.545,5.447 43.778,5.731 43.401,5.936 C42.260,6.573 41.118,7.210 39.976,7.848 C39.505,8.120 38.831,8.216 38.505,7.719 C37.961,6.887 38.858,6.481 39.324,6.211 C40.862,5.322 42.390,4.409 44.053,3.674 ZM22.066,5.954 C18.803,10.066 15.538,14.179 12.274,18.291 C13.819,20.945 15.365,23.599 16.910,26.252 C22.010,25.266 27.112,24.279 32.213,23.292 C28.831,17.513 25.448,11.732 22.066,5.954 ZM32.492,10.348 C31.933,10.391 31.375,10.434 30.816,10.477 C31.505,11.654 32.194,12.831 32.883,14.007 C32.895,14.001 32.908,13.995 32.920,13.989 C33.268,13.462 33.615,12.935 33.963,12.407 C33.559,11.721 33.156,11.035 32.753,10.348 C32.666,10.348 32.579,10.348 32.492,10.348 ZM39.454,11.838 C39.877,11.826 40.172,11.962 40.497,12.058 C41.074,12.211 41.651,12.365 42.228,12.518 C42.633,12.637 43.183,12.658 43.494,12.886 C43.779,13.093 43.991,13.653 43.736,14.062 C43.595,14.289 43.254,14.559 42.806,14.467 C41.924,14.228 41.043,13.989 40.162,13.750 C39.768,13.632 39.300,13.602 39.008,13.382 C38.595,13.072 38.655,12.287 39.045,12.003 C39.182,11.948 39.318,11.893 39.454,11.838 ZM10.840,19.431 C8.985,20.497 7.129,21.564 5.274,22.630 C4.321,23.200 3.347,23.617 2.705,24.488 C1.812,25.698 1.539,27.715 2.407,29.176 C3.264,30.618 5.410,32.050 7.787,31.126 C8.580,30.816 9.279,30.326 9.984,29.911 C11.746,28.913 13.509,27.914 15.271,26.915 C15.271,26.909 15.271,26.903 15.271,26.896 C14.173,25.033 13.074,23.170 11.976,21.307 C11.809,21.029 11.021,19.499 10.840,19.431 ZM11.529,25.094 C12.736,25.055 12.880,26.532 11.939,26.804 C11.259,27.001 10.585,26.379 10.840,25.664 C10.961,25.327 11.215,25.246 11.529,25.094 ZM8.532,26.823 C9.270,26.814 9.832,27.549 9.370,28.202 C9.155,28.506 8.693,28.653 8.365,28.845 C7.851,29.145 7.378,29.491 6.708,29.636 C5.437,29.911 4.077,28.962 3.859,28.147 C3.695,27.532 4.225,26.941 4.864,27.062 C5.436,27.170 5.468,27.732 5.963,27.889 C6.595,28.089 7.609,27.271 8.029,27.025 C8.197,26.957 8.365,26.890 8.532,26.823 ZM16.128,28.422 C15.631,28.711 15.135,28.999 14.638,29.287 C14.930,29.783 15.222,30.279 15.513,30.776 C15.519,30.776 15.526,30.776 15.532,30.776 C16.028,30.488 16.525,30.200 17.021,29.911 C17.021,29.906 17.021,29.900 17.021,29.893 C16.723,29.403 16.425,28.913 16.128,28.422 ZM13.075,30.169 C12.075,30.739 11.076,31.309 10.077,31.879 C10.083,31.898 10.090,31.916 10.096,31.934 C11.411,34.171 12.727,36.408 14.042,38.645 C14.531,39.457 15.181,40.759 16.686,40.117 C17.325,39.844 17.963,39.031 17.673,38.039 C17.474,37.360 16.861,36.573 16.500,35.979 C15.737,34.674 14.973,33.368 14.210,32.063 C14.029,31.769 13.270,30.258 13.075,30.169 Z"/>
</svg>