<svg 
 xmlns="http://www.w3.org/2000/svg"
 xmlns:xlink="http://www.w3.org/1999/xlink"
 width="690px" height="429px">
<path fill-rule="evenodd"  fill="rgb(255, 255, 255)"
 d="M650.999,-0.001 L648.947,428.999 L566.938,428.999 L201.117,428.999 L37.983,428.999 L-0.000,381.488 L-0.000,42.992 L37.532,-0.001 C37.532,-0.001 442.868,-0.001 558.865,-0.001 C561.207,-0.001 565.663,-0.001 565.663,-0.001 L565.664,-0.001 L650.999,-0.001 Z"/>
<path fill-rule="evenodd"  fill="rgb(255, 255, 255)"
 d="M653.448,428.999 C653.448,428.999 258.697,428.999 145.729,428.999 C143.448,428.999 139.108,428.999 139.108,428.999 L139.108,428.999 L56.001,428.999 L58.000,-0.001 L494.135,-0.001 L494.135,-0.000 L653.008,-0.000 L690.000,47.511 L690.000,386.006 L653.448,428.999 Z"/>
</svg>