<svg 
 xmlns="http://www.w3.org/2000/svg"
 xmlns:xlink="http://www.w3.org/1999/xlink"
 width="1109px" height="358px">
<path fill-rule="evenodd"  fill="rgb(255, 255, 255)"
 d="M1072.448,358.000 C1072.448,358.000 677.697,358.000 564.729,358.000 C562.448,358.000 558.108,358.000 558.108,358.000 L558.108,358.000 L475.001,358.000 L196.000,358.000 L196.000,357.999 L37.017,357.999 L-0.000,318.351 L-0.000,35.877 L36.577,-0.001 C36.577,-0.001 431.601,-0.001 544.646,-0.001 C546.929,-0.001 551.272,-0.001 551.272,-0.001 L551.273,-0.001 L634.436,-0.001 L913.135,-0.001 L913.135,-0.000 L1072.008,-0.000 L1109.000,39.648 L1109.000,322.122 L1072.448,358.000 Z"/>
</svg>