<svg 
 xmlns="http://www.w3.org/2000/svg"
 xmlns:xlink="http://www.w3.org/1999/xlink"
 width="18px" height="14px">
<path fill-rule="evenodd"  fill="rgb(28, 58, 106)"
 d="M15.661,1.999 L8.989,6.179 L2.317,1.999 L2.317,3.679 L8.989,7.819 L15.661,3.679 L15.661,1.999 ZM16.832,0.827 C17.144,1.140 17.300,1.530 17.300,1.999 L17.300,11.999 C17.300,12.468 17.144,12.858 16.832,13.171 C16.520,13.483 16.130,13.653 15.661,13.679 L2.317,13.679 C1.848,13.653 1.458,13.483 1.146,13.171 C0.834,12.858 0.678,12.468 0.678,11.999 L0.678,1.999 C0.678,1.530 0.834,1.140 1.146,0.827 C1.458,0.515 1.848,0.345 2.317,0.319 L15.661,0.319 C16.130,0.345 16.520,0.515 16.832,0.827 Z"/>
</svg>