<svg 
 xmlns="http://www.w3.org/2000/svg"
 xmlns:xlink="http://www.w3.org/1999/xlink"
 width="12px" height="20px">
<path fill-rule="evenodd"  fill="rgb(28, 58, 106)"
 d="M10.359,3.319 L1.619,3.319 L1.619,14.999 L10.359,14.999 L10.359,3.319 ZM7.667,16.679 L4.311,16.679 L4.311,17.499 L7.667,17.499 L7.667,16.679 ZM11.101,1.561 C11.569,2.030 11.803,2.616 11.803,3.319 L11.803,16.679 C11.803,17.382 11.569,17.968 11.101,18.436 C10.632,18.905 10.034,19.152 9.306,19.179 L2.672,19.179 C1.944,19.152 1.346,18.905 0.877,18.436 C0.409,17.968 0.175,17.382 0.175,16.679 L0.175,3.319 C0.175,2.616 0.409,2.030 0.877,1.561 C1.346,1.093 1.944,0.845 2.672,0.819 L9.306,0.819 C10.034,0.845 10.632,1.093 11.101,1.561 Z"/>
</svg>