<svg 
 xmlns="http://www.w3.org/2000/svg"
 xmlns:xlink="http://www.w3.org/1999/xlink"
 width="16px" height="18px">
<path fill-rule="evenodd"  fill="rgb(28, 58, 106)"
 d="M9.667,13.319 L3.814,13.319 L3.814,11.679 L9.667,11.679 L9.667,13.319 ZM13.803,6.679 L2.175,6.679 L2.175,15.819 L13.803,15.819 L13.803,6.679 ZM14.993,2.987 C15.318,3.313 15.481,3.710 15.481,4.179 L15.481,15.819 C15.481,16.288 15.318,16.685 14.993,17.011 C14.667,17.337 14.271,17.499 13.803,17.499 L2.175,17.499 C1.707,17.499 1.310,17.337 0.985,17.011 C0.659,16.685 0.497,16.288 0.497,15.819 L0.497,4.179 C0.497,3.710 0.653,3.313 0.965,2.987 C1.278,2.662 1.681,2.499 2.175,2.499 L2.995,2.499 L2.995,0.819 L4.672,0.819 L4.672,2.499 L11.306,2.499 L11.306,0.819 L12.984,0.819 L12.984,2.499 L13.803,2.499 C14.271,2.499 14.667,2.662 14.993,2.987 ZM12.164,9.999 L3.814,9.999 L3.814,8.319 L12.164,8.319 L12.164,9.999 Z"/>
</svg>