<svg 
 xmlns="http://www.w3.org/2000/svg"
 xmlns:xlink="http://www.w3.org/1999/xlink"
 width="14px" height="19px">
<path fill-rule="evenodd"  fill="rgb(28, 58, 106)"
 d="M8.619,8.132 C9.048,7.702 9.263,7.158 9.263,6.499 C9.263,5.840 9.048,5.296 8.619,4.866 C8.190,4.436 7.646,4.222 6.988,4.222 C6.329,4.222 5.786,4.436 5.357,4.866 C4.928,5.296 4.713,5.840 4.713,6.499 C4.713,7.158 4.928,7.702 5.357,8.132 C5.786,8.561 6.329,8.776 6.988,8.776 C7.646,8.776 8.190,8.561 8.619,8.132 ZM11.538,1.944 C12.739,3.147 13.354,4.666 13.383,6.499 C13.126,9.106 12.059,11.691 10.186,14.255 C8.311,16.819 7.245,18.200 6.988,18.401 C6.730,18.200 5.664,16.819 3.790,14.255 C1.916,11.691 0.850,9.106 0.593,6.499 C0.621,4.666 1.236,3.147 2.438,1.944 C3.640,0.741 5.156,0.125 6.988,0.097 C8.819,0.125 10.336,0.741 11.538,1.944 Z"/>
</svg>