<?xml version="1.0" encoding="utf-8"?>
<!-- Generator: Adobe Illustrator 22.0.0, SVG Export Plug-In . SVG Version: 6.00 Build 0)  -->
<svg version="1.1" id="Слой_1" xmlns="http://www.w3.org/2000/svg" xmlns:xlink="http://www.w3.org/1999/xlink" x="0px" y="0px"
	 viewBox="0 0 90.3 50.4" style="enable-background:new 0 0 90.3 50.4;" xml:space="preserve">
<style type="text/css">
	.st0{fill:#FFFFFF;}
</style>
<g>
	<path class="st0" d="M35.9,28.7c-0.3,0-0.5,0.1-0.7,0.3c-0.2,0.2-0.3,0.5-0.3,0.7v5.7c0,0.7-0.2,1.3-0.8,1.8
		c-0.5,0.5-1.1,0.7-1.8,0.7h-0.1c-0.7,0-1.3-0.2-1.8-0.7s-0.7-1.1-0.7-1.8v-5.7c0-0.3-0.1-0.5-0.3-0.7c-0.2-0.2-0.5-0.3-0.7-0.3
		c-0.3,0-0.5,0.1-0.7,0.3c-0.2,0.2-0.3,0.5-0.3,0.7v5.7c0,1.3,0.5,2.4,1.4,3.3s2,1.4,3.3,1.4h0.1c0.9,0,1.8-0.3,2.6-0.8
		c0.1,0.5,0.5,0.8,1,0.8c0.3,0,0.5-0.1,0.7-0.3c0.2-0.2,0.3-0.5,0.3-0.7v-9.3c0-0.3-0.1-0.5-0.3-0.7C36.4,28.8,36.2,28.7,35.9,28.7
		L35.9,28.7z"/>
	<path class="st0" d="M50.8,28.7c-1.4,0-2.6,0.5-3.5,1.6l0,0l0,0l0,0l0,0l0,0l0,0c-0.9-1.1-2.1-1.7-3.6-1.7h-0.1
		c-0.9,0-1.8,0.3-2.5,0.8H41c-0.1-0.4-0.4-0.6-0.8-0.7c-0.3-0.1-0.6,0-0.9,0.2c-0.2,0.2-0.4,0.5-0.4,0.8v9.1c0,0.3,0.1,0.5,0.3,0.8
		c0.2,0.2,0.4,0.3,0.7,0.3c0.3,0,0.6-0.1,0.8-0.3c0.2-0.2,0.3-0.5,0.3-0.8v-5.7c0-0.7,0.2-1.3,0.7-1.8s1.1-0.7,1.8-0.7h0.1
		c0.7,0,1.3,0.2,1.8,0.7s0.7,1.1,0.7,1.8V39c0,0.3,0.1,0.5,0.3,0.7c0.2,0.2,0.4,0.3,0.7,0.3c0.3,0,0.5-0.1,0.7-0.3
		c0.2-0.2,0.3-0.5,0.3-0.7v-5.7l0,0c0-0.7,0.2-1.3,0.7-1.8c0.5-0.5,1.1-0.7,1.8-0.7h0.1c0.7,0,1.3,0.2,1.8,0.7
		c0.5,0.5,0.7,1.1,0.7,1.8V39c0,0.3,0.1,0.5,0.3,0.7c0.2,0.2,0.4,0.3,0.7,0.3c0.3,0,0.5-0.1,0.7-0.3c0.2-0.2,0.3-0.4,0.3-0.7v-5.7
		c0-1.3-0.5-2.4-1.4-3.3C53.2,29.1,52.1,28.7,50.8,28.7L50.8,28.7L50.8,28.7z"/>
	<path class="st0" d="M65.1,28.9c-0.3-0.1-0.5-0.1-0.8,0c-0.3,0.1-0.4,0.3-0.5,0.6l-2.5,6.6l-2.5-6.6c-0.1-0.3-0.3-0.5-0.5-0.6
		c-0.3-0.1-0.5-0.1-0.8,0s-0.5,0.3-0.6,0.5c-0.1,0.3-0.1,0.5,0,0.8l3.5,9.1c0.1,0.3,0.3,0.5,0.6,0.6l0,0l0,0l0,0c0.1,0,0.1,0,0.2,0
		c0,0,0,0,0.1,0h0.1h0.1h0.1c0.1,0,0.1,0,0.2,0l0,0l0,0l0,0c0.3-0.1,0.5-0.3,0.6-0.6l3.5-9.1c0.1-0.3,0.1-0.5,0-0.8
		C65.6,29.2,65.4,29,65.1,28.9L65.1,28.9z"/>
	<path class="st0" d="M68.5,40c-0.3,0-0.5-0.1-0.7-0.3c-0.2-0.2-0.3-0.5-0.3-0.7v-9.2c0-0.3,0.1-0.5,0.3-0.7s0.5-0.3,0.7-0.3
		c0.3,0,0.5,0.1,0.7,0.3c0.2,0.2,0.3,0.4,0.3,0.7V39c0,0.3-0.1,0.5-0.3,0.7C69,39.9,68.7,40,68.5,40L68.5,40z M69.6,26.5
		c0,0.3-0.1,0.6-0.3,0.8c-0.2,0.2-0.5,0.3-0.8,0.3s-0.6-0.1-0.8-0.3c-0.2-0.2-0.3-0.5-0.3-0.8s0.1-0.6,0.3-0.8
		c0.2-0.2,0.5-0.3,0.8-0.3s0.6,0.1,0.8,0.3C69.5,25.9,69.6,26.2,69.6,26.5L69.6,26.5z"/>
	<path class="st0" d="M78.6,35.4c0,0.7-0.2,1.3-0.8,1.8c-0.5,0.5-1.1,0.7-1.8,0.7h-0.1c-0.7,0-1.3-0.2-1.8-0.7s-0.7-1.1-0.7-1.8
		v-2.1c0-0.7,0.2-1.3,0.7-1.8c0.5-0.5,1.1-0.7,1.8-0.7H76c0.7,0,1.3,0.2,1.8,0.7c0.5,0.5,0.8,1.1,0.8,1.8V35.4L78.6,35.4z
		 M79.7,24.4c-0.3,0-0.5,0.1-0.7,0.3c-0.2,0.2-0.3,0.5-0.3,0.7v4.1c-0.8-0.5-1.6-0.8-2.5-0.8h-0.1c-1.3,0-2.4,0.5-3.3,1.4
		c-0.9,0.9-1.4,2-1.4,3.3v2.1c0,1.3,0.5,2.4,1.4,3.3s2,1.4,3.3,1.4h0.1c0.9,0,1.8-0.3,2.6-0.8c0.1,0.5,0.5,0.8,1,0.8
		c0.3,0,0.5-0.1,0.7-0.3c0.2-0.2,0.3-0.5,0.3-0.7V25.4c0-0.3-0.1-0.5-0.3-0.7C80.2,24.5,80,24.4,79.7,24.4L79.7,24.4z"/>
	<path class="st0" d="M77,20.4h11.7c0.5,0,0.9,0.2,1.2,0.5l0,0c0.3,0.3,0.5,0.7,0.5,1.2v6.8c0,0.5-0.2,0.9-0.5,1.2l0,0
		c-0.3,0.3-0.7,0.5-1.2,0.5h-6.4v-1.8h6.3v-6.5H77.2v4.3h-1.8v-4.4c0-0.5,0.2-0.9,0.5-1.2l0,0C76.2,20.6,76.6,20.4,77,20.4L77,20.4z
		"/>
	<polygon class="st0" points="87.6,30.4 84.4,32.6 84.3,30.4 	"/>
	<path class="st0" d="M3,26h1.7c1.6,0,2.9,1.3,2.9,2.9v3.6h9.3v-8.2c-3.4-1.1-5.6-5.6-5.6-11.9c0-6.8,2.5-11.5,6.3-12.1h0.1h37.5
		c0.4,0,0.8,0.3,0.9,0.8l0,0c0,0.1,0.4,2.5-1.2,4.4c-1.1,1.3-2.7,2-4.9,2.2c0.3,1.5,0.5,3.1,0.5,4.7c0,6.8-2.9,12.1-6.5,12.1H24.4
		V39c0,1.6-1.3,2.8-2.8,2.8h-1.8c-1.2,0-2.3-0.8-2.6-1.9H7.7v7.4c0,1.6-1.3,2.9-2.9,2.9H3.1c-1.6,0-2.9-1.3-2.9-2.9V28.9
		C0.2,27.3,1.5,26,3,26L3,26z M18,2.1c-2.2,0.4-4.5,3.4-4.7,9.3c6,0,12,0,18.1,0c1.2,0,0.9,0.2,1.7-0.6L35.9,8
		c0.2-0.2,0.4-0.3,0.7-0.3h1.9h0.3h3.7h1l0,0c0.1-0.2,0.2-0.3,0.3-0.5C43.9,7.1,43.9,7,44,6.9l0.1-0.1l0.1-0.1l0.1-0.1
		c0,0,0,0,0.1,0c0.1-0.1,0.2-0.2,0.3-0.3c0.1-0.1,0.1-0.1,0.2-0.2c0.2-0.2,0.4-0.3,0.6-0.5c0.2-0.1,0.3-0.3,0.5-0.4
		c0.1-0.1,0.2-0.1,0.2-0.2c1.4-1.1,3-2,4.5-2.7H18V2.1z M43.1,11.1c0,1.9,0.6,3.2,0.9,3.8c0.4-0.6,0.9-1.9,0.9-3.8
		c0-0.8-0.1-1.4-0.2-1.9l0,0c-0.1,0.1-0.2,0.2-0.3,0.2c0,0,0,0-0.1,0c-0.1,0.1-0.2,0.1-0.4,0.1h-0.7C43.1,10.1,43.1,10.6,43.1,11.1
		L43.1,11.1z M53.5,4.2c0.4-0.5,0.6-1.1,0.7-1.7c-1.4,0.6-3.3,1.5-5,2.5c0.1,0.2,0.2,0.5,0.3,0.7C51.4,5.7,52.7,5.2,53.5,4.2
		L53.5,4.2z M48.7,12.4c0-2.3-0.4-4.4-1-6.2c0,0,0,0-0.1,0C47,6.6,46.5,7,46.1,7.4c0.3,0.8,0.7,2,0.7,3.7c0,3.1-1.3,5.9-2.8,5.9
		s-2.8-2.8-2.8-5.9c0-0.5,0-1,0.1-1.6h-1.8c-0.1,0.9-0.2,1.9-0.2,2.8c0,5.8,2.5,10.3,4.7,10.3C46.2,22.6,48.7,18.4,48.7,12.4
		L48.7,12.4z M40.6,22.6C40.6,22.6,40.6,22.5,40.6,22.6c-0.3-0.3-0.5-0.5-0.6-0.8l-0.1-0.1c-0.2-0.3-0.4-0.6-0.5-0.9
		c0-0.1-0.1-0.2-0.1-0.3c-0.1-0.3-0.2-0.5-0.4-0.8c0-0.1-0.1-0.2-0.1-0.4c-0.1-0.3-0.2-0.6-0.3-0.9c0-0.1-0.1-0.2-0.1-0.3
		c-0.1-0.4-0.2-0.8-0.3-1.2c0-0.1,0-0.2-0.1-0.3c-0.1-0.3-0.1-0.7-0.2-1.1c0-0.1,0-0.3-0.1-0.4c0-0.3-0.1-0.7-0.1-1
		c0-0.1,0-0.3,0-0.4c0-0.5-0.1-0.9-0.1-1.4V9.5H37L33.5,13c-0.2,0.2-0.4,0.3-0.7,0.3H13.3c0.2,5.9,2.4,8.9,4.7,9.3h6.5L40.6,22.6
		L40.6,22.6z M19.8,40h1.8c0.5,0,1-0.4,1-1V24.5h-3.7v8V39C18.8,39.5,19.3,40,19.8,40L19.8,40z M17,38.1v-3.7H7.7v3.7H17L17,38.1z
		 M2,47.4c0,0.6,0.5,1,1,1h1.7c0.6,0,1-0.5,1-1V40v-7.5v-3.6c0-0.6-0.5-1-1-1H3c-0.6,0-1,0.5-1,1V47.4L2,47.4z"/>
	<path class="st0" d="M9.9,44.3h1.6c0.7,0,1.3,0.2,1.8,0.7c0.5,0.4,0.7,1,0.7,1.6v0.9c0,0.6-0.2,1.2-0.7,1.6s-1.1,0.7-1.8,0.7H9.9
		c-0.2,0-0.3-0.1-0.4-0.2s-0.2-0.2-0.2-0.4v-4.4c0-0.2,0.1-0.3,0.2-0.4C9.7,44.4,9.8,44.3,9.9,44.3L9.9,44.3z M10.5,48.8h1
		c0.4,0,0.8-0.1,1-0.4c0.3-0.2,0.4-0.5,0.4-0.9v-0.9c0-0.4-0.1-0.7-0.4-0.9c-0.3-0.2-0.6-0.4-1-0.4h-1V48.8L10.5,48.8z"/>
	<path class="st0" d="M16.8,44.9v4.5c0,0.2,0,0.3-0.1,0.4S16.5,50,16.3,50s-0.3-0.1-0.4-0.2s-0.1-0.2-0.1-0.4v-4.5
		c0-0.2,0.1-0.3,0.2-0.4c0.1-0.1,0.2-0.2,0.4-0.2s0.3,0.1,0.4,0.2C16.7,44.6,16.8,44.7,16.8,44.9L16.8,44.9z"/>
	<path class="st0" d="M21,50c-0.7,0-1.3-0.2-1.8-0.7c-0.5-0.4-0.7-1-0.7-1.6v-1.3c0-0.6,0.2-1.2,0.7-1.6s1.1-0.7,1.8-0.7
		c0.6,0,1.1,0.1,1.5,0.4s0.6,0.5,0.6,0.8c0,0.1-0.1,0.3-0.2,0.4s-0.2,0.2-0.4,0.2c-0.2,0-0.3-0.1-0.4-0.2s-0.2-0.2-0.3-0.2
		c-0.1-0.1-0.2-0.1-0.3-0.2c-0.2-0.1-0.3-0.1-0.5-0.1c-0.4,0-0.7,0.1-1,0.4c-0.3,0.2-0.4,0.5-0.4,0.9v1.3c0,0.4,0.1,0.7,0.4,0.9
		c0.3,0.2,0.6,0.4,1,0.4c0.2,0,0.4,0,0.6-0.1s0.3-0.1,0.4-0.2l0.1-0.1v-0.8h-0.8c-0.1,0-0.3-0.1-0.4-0.2s-0.2-0.2-0.2-0.4
		c0-0.1,0.1-0.3,0.2-0.4s0.2-0.2,0.4-0.2h1.3c0.2,0,0.3,0.1,0.4,0.2s0.1,0.2,0.1,0.4v1.6c0,0.1-0.1,0.3-0.3,0.4
		c-0.2,0.2-0.4,0.3-0.8,0.5C21.7,49.9,21.4,50,21,50L21,50z"/>
	<path class="st0" d="M25.9,44.9v4.5c0,0.2,0,0.3-0.1,0.4S25.6,50,25.4,50c-0.2,0-0.3-0.1-0.4-0.2s-0.1-0.2-0.1-0.4v-4.5
		c0-0.2,0.1-0.3,0.2-0.4s0.2-0.2,0.4-0.2c0.2,0,0.3,0.1,0.4,0.2C25.9,44.6,25.9,44.7,25.9,44.9L25.9,44.9z"/>
	<path class="st0" d="M27.8,44.3h3.8c0.2,0,0.3,0,0.4,0.1c0.1,0.1,0.2,0.2,0.2,0.4c0,0.1-0.1,0.3-0.2,0.4c-0.1,0.1-0.2,0.1-0.4,0.1
		h-1.4v4c0,0.2,0,0.3-0.1,0.4s-0.2,0.2-0.4,0.2c-0.2,0-0.3-0.1-0.4-0.2s-0.1-0.2-0.1-0.4v-4h-1.3c-0.2,0-0.3,0-0.4-0.1
		c-0.2-0.1-0.3-0.2-0.3-0.3s0.1-0.3,0.2-0.4C27.5,44.4,27.6,44.3,27.8,44.3L27.8,44.3z"/>
	<path class="st0" d="M34.5,44.3c0.1-0.1,0.3-0.2,0.5-0.2s0.4,0.1,0.5,0.2s0.2,0.3,0.3,0.4l1.8,4.2c0.1,0.1,0.1,0.2,0.1,0.3
		c0,0.1-0.1,0.3-0.2,0.4s-0.2,0.2-0.4,0.2c-0.3,0-0.4-0.2-0.6-0.5l-0.4-0.9h-2.4l-0.4,0.9c-0.1,0.3-0.3,0.5-0.6,0.5
		c-0.2,0-0.3-0.1-0.4-0.2s-0.2-0.2-0.2-0.4c0,0,0-0.1,0-0.2s0-0.1,0-0.1v-0.1l1.8-4.2C34.3,44.6,34.4,44.5,34.5,44.3L34.5,44.3z
		 M35,45.5l-0.8,2h1.6L35,45.5L35,45.5L35,45.5z"/>
	<path class="st0" d="M40.2,48.8h2.6c0.1,0,0.3,0.1,0.4,0.2s0.2,0.2,0.2,0.4c0,0.1-0.1,0.3-0.2,0.4S43,50,42.8,50h-3.1
		c-0.2,0-0.3-0.1-0.4-0.2s-0.2-0.2-0.2-0.4V45c0-0.2,0.1-0.3,0.2-0.4s0.2-0.2,0.4-0.2c0.2,0,0.3,0.1,0.4,0.2s0.2,0.2,0.2,0.4
		L40.2,48.8L40.2,48.8z"/>
	<path class="st0" d="M51.4,46.5v1.3c0,0.6-0.2,1.2-0.7,1.6s-1.1,0.7-1.8,0.7c-0.7,0-1.3-0.2-1.8-0.7c-0.5-0.4-0.7-1-0.7-1.6v-1.3
		c0-0.6,0.2-1.2,0.7-1.6s1.1-0.7,1.8-0.7c0.7,0,1.3,0.2,1.8,0.7C51.2,45.3,51.4,45.8,51.4,46.5L51.4,46.5z M48,48.6
		c0.3,0.2,0.6,0.4,1,0.4s0.7-0.1,1-0.4c0.3-0.2,0.4-0.5,0.4-0.9v-1.3c0-0.4-0.1-0.7-0.4-0.9c-0.3-0.2-0.6-0.4-1-0.4s-0.7,0.1-1,0.4
		c-0.3,0.2-0.4,0.5-0.4,0.9v1.3C47.6,48.1,47.7,48.4,48,48.6L48,48.6z"/>
	<path class="st0" d="M53.7,44.3h2c0.6,0,1.1,0.2,1.4,0.5c0.4,0.3,0.6,0.7,0.6,1.2c0,0.2,0,0.4-0.1,0.6s-0.2,0.3-0.3,0.4
		c-0.1,0.1-0.2,0.2-0.3,0.3c-0.1,0.1-0.2,0.1-0.3,0.2h-0.1l0,0l1.1,1.4c0.1,0.1,0.2,0.3,0.2,0.4s0,0.3-0.1,0.4s-0.2,0.1-0.4,0.1
		c-0.1,0-0.2,0-0.2-0.1c-0.1,0-0.1-0.1-0.2-0.1l0,0l-1.5-1.9h-1.3v1.5c0,0.2-0.1,0.3-0.2,0.4s-0.2,0.2-0.4,0.2s-0.3-0.1-0.4-0.2
		S53,49.4,53,49.2v-4.4c0-0.2,0.1-0.3,0.2-0.4C53.4,44.4,53.5,44.3,53.7,44.3L53.7,44.3z M56.5,46.1c0-0.2-0.1-0.4-0.2-0.5
		c-0.2-0.1-0.4-0.2-0.6-0.2h-1.5v1.4h1.4c0.3,0,0.5-0.1,0.6-0.2C56.5,46.4,56.5,46.3,56.5,46.1L56.5,46.1z"/>
	<path class="st0" d="M60.4,44.9v4.5c0,0.2,0,0.3-0.1,0.4S60.1,50,59.9,50s-0.3-0.1-0.4-0.2c-0.1-0.1-0.1-0.2-0.1-0.4v-4.5
		c0-0.2,0.1-0.3,0.2-0.4c0.1-0.1,0.2-0.2,0.4-0.2s0.3,0.1,0.4,0.2C60.4,44.6,60.4,44.7,60.4,44.9L60.4,44.9z"/>
	<path class="st0" d="M64.6,50c-0.7,0-1.3-0.2-1.8-0.7c-0.5-0.4-0.7-1-0.7-1.6v-1.3c0-0.6,0.2-1.2,0.7-1.6s1.1-0.7,1.8-0.7
		c0.6,0,1.1,0.1,1.5,0.4s0.6,0.5,0.6,0.8c0,0.1-0.1,0.3-0.2,0.4c-0.1,0.1-0.2,0.2-0.4,0.2s-0.3-0.1-0.4-0.2
		c-0.1-0.1-0.2-0.2-0.3-0.2c-0.1-0.1-0.2-0.1-0.3-0.2c-0.2-0.1-0.3-0.1-0.5-0.1c-0.4,0-0.7,0.1-1,0.4c-0.3,0.2-0.4,0.5-0.4,0.9v1.3
		c0,0.4,0.1,0.7,0.4,0.9c0.3,0.2,0.6,0.4,1,0.4c0.2,0,0.4,0,0.6-0.1c0.2-0.1,0.3-0.1,0.4-0.2l0.1-0.1v-0.8h-0.8
		c-0.1,0-0.3-0.1-0.4-0.2c-0.1-0.1-0.2-0.2-0.2-0.4c0-0.1,0.1-0.3,0.2-0.4c0.1-0.1,0.2-0.2,0.4-0.2h1.3c0.2,0,0.3,0.1,0.4,0.2
		c0.1,0.1,0.1,0.2,0.1,0.4v1.6c0,0.1-0.1,0.3-0.3,0.4c-0.2,0.2-0.4,0.3-0.8,0.5C65.4,49.9,65,50,64.6,50L64.6,50z"/>
	<path class="st0" d="M69.6,44.9v4.5c0,0.2,0,0.3-0.1,0.4S69.3,50,69.1,50s-0.3-0.1-0.4-0.2c-0.1-0.1-0.1-0.2-0.1-0.4v-4.5
		c0-0.2,0.1-0.3,0.2-0.4c0.1-0.1,0.2-0.2,0.4-0.2s0.3,0.1,0.4,0.2C69.5,44.6,69.6,44.7,69.6,44.9L69.6,44.9z"/>
	<path class="st0" d="M75.1,47.9L75.1,47.9v-3c0-0.2,0-0.3,0.1-0.4s0.2-0.2,0.4-0.2s0.3,0.1,0.4,0.2c0.1,0.1,0.1,0.2,0.1,0.4v4.5
		c0,0.2-0.1,0.3-0.2,0.4c-0.1,0.1-0.2,0.2-0.4,0.2s-0.4-0.1-0.5-0.3l-2.5-3.3l0,0v3c0,0.2,0,0.3-0.1,0.4S72.2,50,72,50
		s-0.3-0.1-0.4-0.2c-0.1-0.1-0.1-0.2-0.1-0.4v-4.5c0-0.2,0.1-0.3,0.2-0.4c0.1-0.1,0.2-0.2,0.4-0.2s0.4,0.1,0.5,0.3L75.1,47.9
		L75.1,47.9z"/>
	<path class="st0" d="M79.8,44.3c0.1-0.1,0.3-0.2,0.5-0.2s0.4,0.1,0.5,0.2s0.2,0.3,0.3,0.4l1.8,4.2C83,49,83,49.1,83,49.2
		c0,0.1-0.1,0.3-0.2,0.4c-0.1,0.1-0.2,0.2-0.4,0.2c-0.3,0-0.4-0.2-0.6-0.5l-0.4-0.9H79l-0.4,0.9c-0.1,0.3-0.3,0.5-0.6,0.5
		c-0.2,0-0.3-0.1-0.4-0.2c-0.1-0.1-0.2-0.2-0.2-0.4c0,0,0-0.1,0-0.2s0-0.1,0-0.1v-0.1l1.8-4.2C79.6,44.6,79.7,44.5,79.8,44.3
		L79.8,44.3z M80.3,45.5l-0.8,2h1.6L80.3,45.5L80.3,45.5L80.3,45.5z"/>
	<path class="st0" d="M85.5,48.8h2.6c0.1,0,0.3,0.1,0.4,0.2c0.1,0.1,0.2,0.2,0.2,0.4c0,0.1-0.1,0.3-0.2,0.4
		c-0.1,0.1-0.2,0.2-0.4,0.2H85c-0.2,0-0.3-0.1-0.4-0.2c-0.1-0.1-0.2-0.2-0.2-0.4V45c0-0.2,0.1-0.3,0.2-0.4c0.1-0.1,0.2-0.2,0.4-0.2
		s0.3,0.1,0.4,0.2c0.1,0.1,0.2,0.2,0.2,0.4L85.5,48.8L85.5,48.8z"/>
	<path class="st0" d="M82,25.4c0-0.6,0.5-1,1-1c0.6,0,1,0.5,1,1c0,0.6-0.5,1-1,1C82.4,26.4,82,26,82,25.4L82,25.4z"/>
	<path class="st0" d="M85.3,25.4c0-0.6,0.5-1,1-1c0.6,0,1,0.5,1,1c0,0.6-0.5,1-1,1S85.3,26,85.3,25.4L85.3,25.4z"/>
</g>
</svg>
