<svg 
 xmlns="http://www.w3.org/2000/svg"
 xmlns:xlink="http://www.w3.org/1999/xlink"
 width="17px" height="17px">
<path fill-rule="evenodd"  fill="rgb(226, 80, 118)"
 d="M6.430,0.362 C5.747,0.552 5.111,0.822 4.520,1.171 C3.928,1.520 3.389,1.938 2.902,2.425 C2.415,2.912 1.997,3.451 1.648,4.042 C1.299,4.633 1.030,5.270 0.840,5.952 C0.650,6.634 0.555,7.343 0.555,8.077 C0.555,8.811 0.650,9.520 0.840,10.202 C1.030,10.884 1.299,11.521 1.648,12.112 C1.997,12.703 2.415,13.242 2.902,13.729 C3.389,14.216 3.928,14.634 4.520,14.983 C5.111,15.332 5.747,15.602 6.430,15.792 C7.112,15.982 7.820,16.077 8.555,16.077 C9.289,16.077 9.997,15.982 10.680,15.792 C11.362,15.602 11.999,15.332 12.590,14.983 C13.181,14.634 13.720,14.216 14.207,13.729 C14.694,13.242 15.112,12.703 15.461,12.112 C15.810,11.521 16.079,10.884 16.270,10.202 C16.460,9.520 16.555,8.811 16.555,8.077 C16.555,7.343 16.460,6.634 16.270,5.952 C16.079,5.270 15.810,4.633 15.461,4.042 C15.112,3.451 14.694,2.912 14.207,2.425 C13.720,1.938 13.181,1.520 12.590,1.171 C11.999,0.822 11.362,0.552 10.680,0.362 C9.997,0.172 9.289,0.077 8.555,0.077 C7.820,0.077 7.112,0.172 6.430,0.362 ZM6.691,14.827 C6.095,14.660 5.538,14.425 5.020,14.120 C4.501,13.815 4.030,13.451 3.605,13.026 C3.181,12.602 2.816,12.130 2.512,11.612 C2.207,11.094 1.971,10.537 1.805,9.940 C1.638,9.344 1.555,8.723 1.555,8.077 C1.555,7.431 1.638,6.810 1.805,6.214 C1.971,5.617 2.207,5.060 2.512,4.542 C2.816,4.024 3.181,3.552 3.605,3.128 C4.030,2.703 4.501,2.339 5.020,2.034 C5.538,1.729 6.095,1.494 6.691,1.327 C7.288,1.160 7.909,1.077 8.555,1.077 C9.200,1.077 9.822,1.160 10.418,1.327 C11.014,1.494 11.572,1.729 12.090,2.034 C12.608,2.339 13.079,2.703 13.504,3.128 C13.928,3.552 14.293,4.024 14.598,4.542 C14.902,5.060 15.138,5.617 15.305,6.214 C15.471,6.810 15.555,7.431 15.555,8.077 C15.555,8.723 15.471,9.344 15.305,9.940 C15.138,10.537 14.902,11.094 14.598,11.612 C14.293,12.130 13.928,12.602 13.504,13.026 C13.079,13.451 12.608,13.815 12.090,14.120 C11.572,14.425 11.014,14.660 10.418,14.827 C9.822,14.994 9.200,15.077 8.555,15.077 C7.909,15.077 7.288,14.994 6.691,14.827 ZM11.312,4.616 L8.555,7.366 L5.797,4.616 L5.094,5.319 L7.844,8.077 L5.094,10.835 L5.797,11.538 L8.555,8.788 L11.312,11.538 L12.016,10.835 L9.266,8.077 L12.016,5.319 L11.312,4.616 Z"/>
</svg>