<svg 
 xmlns="http://www.w3.org/2000/svg"
 xmlns:xlink="http://www.w3.org/1999/xlink"
 width="17px" height="17px">
<path fill-rule="evenodd"  fill="rgb(120, 223, 204)"
 d="M7.055,9.874 L4.906,7.725 L4.203,8.428 L7.055,11.280 L12.906,5.428 L12.203,4.725 L7.055,9.874 ZM6.426,0.362 C5.746,0.552 5.109,0.820 4.516,1.167 C3.922,1.513 3.381,1.930 2.895,2.417 C2.407,2.904 1.991,3.444 1.645,4.038 C1.298,4.632 1.030,5.270 0.840,5.952 C0.650,6.634 0.555,7.343 0.555,8.077 C0.555,8.817 0.650,9.526 0.840,10.206 C1.030,10.886 1.298,11.522 1.645,12.116 C1.991,12.710 2.407,13.250 2.895,13.737 C3.381,14.224 3.922,14.641 4.516,14.987 C5.109,15.333 5.747,15.602 6.430,15.792 C7.112,15.982 7.820,16.077 8.555,16.077 C9.289,16.077 9.997,15.982 10.680,15.792 C11.362,15.602 12.000,15.333 12.594,14.987 C13.187,14.641 13.728,14.224 14.215,13.737 C14.702,13.250 15.118,12.710 15.465,12.116 C15.811,11.522 16.079,10.884 16.270,10.202 C16.460,9.520 16.555,8.811 16.555,8.077 C16.555,7.343 16.460,6.634 16.270,5.952 C16.079,5.270 15.811,4.632 15.465,4.038 C15.118,3.444 14.702,2.904 14.215,2.417 C13.728,1.930 13.187,1.513 12.594,1.167 C12.000,0.820 11.362,0.552 10.680,0.362 C9.997,0.172 9.289,0.077 8.555,0.077 C7.815,0.077 7.105,0.172 6.426,0.362 ZM6.695,14.827 C6.102,14.660 5.546,14.425 5.027,14.120 C4.509,13.815 4.036,13.449 3.609,13.022 C3.182,12.595 2.816,12.123 2.512,11.604 C2.207,11.086 1.971,10.529 1.805,9.932 C1.638,9.336 1.555,8.718 1.555,8.077 C1.555,7.436 1.638,6.818 1.805,6.221 C1.971,5.625 2.207,5.068 2.512,4.550 C2.816,4.031 3.182,3.559 3.609,3.132 C4.036,2.705 4.509,2.339 5.027,2.034 C5.546,1.729 6.103,1.494 6.699,1.327 C7.296,1.160 7.914,1.077 8.555,1.077 C9.195,1.077 9.814,1.160 10.410,1.327 C11.006,1.494 11.564,1.729 12.082,2.034 C12.600,2.339 13.073,2.705 13.500,3.132 C13.927,3.559 14.293,4.031 14.598,4.550 C14.902,5.068 15.138,5.625 15.305,6.221 C15.471,6.818 15.555,7.436 15.555,8.077 C15.555,8.723 15.471,9.343 15.305,9.936 C15.138,10.530 14.902,11.086 14.598,11.604 C14.293,12.123 13.927,12.595 13.500,13.022 C13.073,13.449 12.600,13.815 12.082,14.120 C11.564,14.425 11.006,14.660 10.410,14.827 C9.814,14.994 9.195,15.077 8.555,15.077 C7.909,15.077 7.289,14.994 6.695,14.827 Z"/>
</svg>